<svg xmlns="http://www.w3.org/2000/svg" xmlns:xlink="http://www.w3.org/1999/xlink" width="500" zoomAndPan="magnify" viewBox="0 0 375 374.999991" height="500" preserveAspectRatio="xMidYMid meet" version="1.0"><defs><clipPath id="be53b01b17"><path d="M 70.273438 98.40625 L 305 98.40625 L 305 276.90625 L 70.273438 276.90625 Z M 70.273438 98.40625 " clip-rule="nonzero"/></clipPath></defs><g clip-path="url(#be53b01b17)"><path fill="#ffffff" d="M 286.585938 227.214844 L 285.902344 227.871094 C 272.796875 240.488281 255.121094 248.023438 238.621094 248.023438 C 204.6875 248.023438 178.105469 221.75 178.105469 188.214844 C 178.105469 154.816406 204.6875 128.652344 238.621094 128.652344 C 255.679688 128.652344 273.339844 136.71875 285.867188 150.238281 L 286.585938 151.015625 L 304.71875 128.402344 L 304.128906 127.824219 C 287.101562 111.035156 262.425781 101.015625 238.132812 101.015625 C 213.269531 101.015625 190.214844 109.953125 173.21875 126.191406 C 173.09375 126.308594 172.976562 126.433594 172.851562 126.554688 C 164.671875 110.558594 148.34375 99.355469 129.035156 98.78125 C 115.976562 98.390625 102.898438 98.648438 89.828125 98.640625 C 83.316406 98.640625 76.800781 98.640625 70.285156 98.636719 L 70.285156 128.09375 C 88.164062 128.09375 106.046875 128.101562 123.925781 128.101562 C 125.601562 128.101562 127.277344 128.085938 128.953125 128.15625 C 137.808594 128.539062 146.179688 135.347656 148.386719 143.925781 C 152.167969 158.632812 141.890625 172.03125 126.683594 172.125 C 121.210938 172.15625 115.734375 172.175781 70.285156 172.179688 L 70.285156 201.195312 C 115.902344 201.21875 121.53125 201.238281 127.15625 201.273438 C 139.398438 201.347656 149.265625 211.285156 149.265625 223.386719 C 149.265625 235.464844 139.535156 245.121094 127.234375 245.222656 C 123.601562 245.253906 119.964844 245.242188 70.285156 245.257812 L 70.285156 274.441406 C 119.488281 274.449219 122.941406 274.464844 126.386719 274.488281 C 134.847656 274.535156 142.816406 272.824219 150.386719 269.015625 C 159.304688 264.527344 166.324219 257.683594 171.128906 249.621094 C 171.710938 250.21875 172.292969 250.816406 172.898438 251.398438 C 189.714844 267.839844 212.527344 276.886719 237.144531 276.886719 C 261.132812 276.886719 286.261719 266.21875 304.375 248.355469 L 304.992188 247.742188 Z M 286.585938 227.214844 " fill-opacity="1" fill-rule="nonzero"/></g><path fill="#ffffff" d="M 261.585938 165.492188 C 262.324219 166.230469 263.023438 167.003906 263.6875 167.808594 C 264.347656 168.617188 264.96875 169.453125 265.550781 170.324219 C 266.128906 171.191406 266.664062 172.085938 267.15625 173.007812 C 267.648438 173.925781 268.09375 174.871094 268.496094 175.835938 C 268.894531 176.800781 269.246094 177.78125 269.546875 178.78125 C 269.851562 179.78125 270.105469 180.792969 270.308594 181.816406 C 270.511719 182.839844 270.664062 183.871094 270.765625 184.910156 C 270.867188 185.949219 270.921875 186.992188 270.921875 188.035156 C 270.921875 189.082031 270.871094 190.121094 270.765625 191.160156 C 270.664062 192.199219 270.511719 193.234375 270.308594 194.257812 C 270.105469 195.28125 269.851562 196.292969 269.546875 197.292969 C 269.246094 198.292969 268.894531 199.273438 268.496094 200.238281 C 268.09375 201.203125 267.648438 202.144531 267.15625 203.066406 C 266.664062 203.988281 266.128906 204.882812 265.550781 205.75 C 264.96875 206.617188 264.347656 207.457031 263.6875 208.265625 C 263.023438 209.070312 262.324219 209.84375 261.585938 210.582031 C 260.847656 211.320312 260.074219 212.019531 259.269531 212.683594 C 258.460938 213.347656 257.625 213.96875 256.757812 214.546875 C 255.890625 215.128906 254.996094 215.664062 254.074219 216.15625 C 253.152344 216.648438 252.210938 217.09375 251.246094 217.496094 C 250.28125 217.894531 249.300781 218.246094 248.304688 218.546875 C 247.304688 218.851562 246.292969 219.105469 245.269531 219.308594 C 244.246094 219.511719 243.214844 219.664062 242.175781 219.769531 C 241.136719 219.871094 240.09375 219.921875 239.050781 219.921875 C 238.007812 219.921875 236.964844 219.871094 235.929688 219.769531 C 234.890625 219.664062 233.859375 219.511719 232.835938 219.308594 C 231.8125 219.105469 230.800781 218.851562 229.800781 218.546875 C 228.800781 218.246094 227.820312 217.894531 226.855469 217.496094 C 225.890625 217.09375 224.949219 216.648438 224.027344 216.15625 C 223.109375 215.664062 222.214844 215.128906 221.347656 214.546875 C 220.476562 213.96875 219.640625 213.347656 218.835938 212.683594 C 218.027344 212.023438 217.253906 211.320312 216.515625 210.582031 C 215.777344 209.84375 215.078125 209.070312 214.417969 208.265625 C 213.753906 207.457031 213.132812 206.621094 212.554688 205.75 C 211.972656 204.882812 211.4375 203.988281 210.945312 203.066406 C 210.453125 202.148438 210.007812 201.203125 209.609375 200.238281 C 209.207031 199.273438 208.859375 198.292969 208.554688 197.292969 C 208.25 196.292969 208 195.28125 207.792969 194.257812 C 207.589844 193.234375 207.4375 192.203125 207.335938 191.164062 C 207.234375 190.125 207.183594 189.082031 207.183594 188.039062 C 207.183594 186.992188 207.234375 185.953125 207.335938 184.914062 C 207.4375 183.875 207.589844 182.839844 207.792969 181.816406 C 207.996094 180.792969 208.25 179.78125 208.554688 178.78125 C 208.855469 177.78125 209.207031 176.800781 209.609375 175.835938 C 210.007812 174.871094 210.453125 173.929688 210.945312 173.007812 C 211.4375 172.085938 211.972656 171.191406 212.550781 170.324219 C 213.132812 169.457031 213.753906 168.617188 214.414062 167.808594 C 215.078125 167.003906 215.777344 166.230469 216.515625 165.492188 C 217.253906 164.753906 218.027344 164.054688 218.832031 163.390625 C 219.640625 162.726562 220.476562 162.105469 221.34375 161.527344 C 222.214844 160.945312 223.105469 160.410156 224.027344 159.917969 C 224.949219 159.425781 225.890625 158.980469 226.855469 158.582031 C 227.820312 158.179688 228.800781 157.828125 229.800781 157.527344 C 230.796875 157.222656 231.808594 156.96875 232.832031 156.765625 C 233.855469 156.5625 234.886719 156.410156 235.925781 156.304688 C 236.964844 156.203125 238.007812 156.152344 239.050781 156.152344 C 240.09375 156.152344 241.136719 156.203125 242.175781 156.304688 C 243.214844 156.410156 244.246094 156.5625 245.269531 156.765625 C 246.292969 156.96875 247.304688 157.222656 248.300781 157.527344 C 249.300781 157.828125 250.28125 158.179688 251.246094 158.578125 C 252.210938 158.980469 253.152344 159.425781 254.074219 159.917969 C 254.996094 160.410156 255.886719 160.945312 256.757812 161.527344 C 257.625 162.105469 258.460938 162.726562 259.269531 163.390625 C 260.074219 164.050781 260.847656 164.753906 261.585938 165.492188 Z M 261.585938 165.492188 " fill-opacity="1" fill-rule="nonzero"/></svg>